/vscmnt/brussel_pixiu_data/_data_brussel/112/vsc11236/PredSimResults/SUBJ10mtu3D/weighted-expIG/worker_05.mot
version=1
nRows=4
nColumns=50
inDegrees=yes
endheader
                time	         pelvis_tilt	         pelvis_list	     pelvis_rotation	           pelvis_tx	           pelvis_ty	           pelvis_tz	       hip_flexion_r	     hip_adduction_r	      hip_rotation_r	        knee_angle_r	       ankle_angle_r	         mtp_angle_r	       hip_flexion_l	     hip_adduction_l	      hip_rotation_l	        knee_angle_l	       ankle_angle_l	         mtp_angle_l	    lumbar_extension	      lumbar_bending	     lumbar_rotation	 ercspn_r/activation	 intobl_r/activation	 extobl_r/activation	    abd_r/activation	    add_r/activation	hamstrings_r/activation	bifemsh_r/activation	glut_max_r/activation	iliopsoas_r/activation	rect_fem_r/activation	  vasti_r/activation	gastroc_r/activation	 soleus_r/activation	tib_ant_r/activation	 ercspn_l/activation	 intobl_l/activation	 extobl_l/activation	    abd_l/activation	    add_l/activation	hamstrings_l/activation	bifemsh_l/activation	glut_max_l/activation	iliopsoas_l/activation	rect_fem_l/activation	  vasti_l/activation	gastroc_l/activation	 soleus_l/activation	tib_ant_l/activation	
          1.18683101	         -4.84306363	         -2.68563295	         11.24725933	          1.28177749	          0.82581964	         -0.01726066	         29.11764559	         -1.60559571	         -9.22173230	         -5.09627972	          6.56329689	          0.25589366	        -13.06605461	         -2.96857198	          6.79381504	         -7.42680526	          9.84278608	         25.43960661	         -6.57749367	          0.96367912	         -3.99250795	          0.07877552	          0.13978522	          0.02058469	          0.00999999	          0.19474930	          0.03126738	          0.12629810	          0.05413721	          0.07391584	          0.01197805	          0.00999999	          0.01215716	          0.00999999	          0.25970529	          0.06283630	          0.00999999	          0.00999999	          0.03886966	          0.07486182	          0.02423828	          0.12433229	          0.03537552	          0.37157723	          0.00999999	          0.00999999	          0.26808481	          0.24628231	          0.01572978	
          1.19869932	         -4.90484745	         -2.50377215	         11.06197937	          1.29742831	          0.82412722	         -0.01672331	         29.18437172	         -1.41901489	         -8.20430529	         -6.93149672	          6.30728150	          0.23942061	        -13.11151061	         -2.77728393	          6.11051512	         -9.35071503	          9.34708268	         27.12744055	         -6.33721808	          1.38239579	         -4.15433699	          0.06576655	          0.13266041	          0.01718534	          0.00999999	          0.18730062	          0.03956587	          0.10544128	          0.09335684	          0.06170940	          0.01000000	          0.00999999	          0.01718534	          0.01389157	          0.28522068	          0.08639217	          0.00999999	          0.00999999	          0.03245074	          0.10767988	          0.02407676	          0.10380010	          0.02953362	          0.36765818	          0.00999999	          0.00999999	          0.22381337	          0.23282495	          0.01313217	
          1.21056763	         -4.95048940	         -2.33317625	         10.81294961	          1.31334043	          0.82268008	         -0.01611738	         29.03323103	         -1.22419213	         -7.20556562	         -8.45773136	          5.96273102	          0.23444211	        -12.95824665	         -2.57904974	          5.36527235	        -11.68528277	          8.71394621	         28.78635780	         -6.08228177	          1.82553716	         -4.29091477	          0.07459414	          0.11075291	          0.01434736	          0.07227594	          0.18349813	          0.04664891	          0.08802874	          0.08968389	          0.05151873	          0.00999999	          0.00999999	          0.01434735	          0.01159752	          0.31079776	          0.10571331	          0.00999999	          0.00999999	          0.02709183	          0.09734779	          0.02010075	          0.08665858	          0.02465645	          0.35557401	          0.00999999	          0.00999999	          0.18685290	          0.21398207	          0.01096353	
          1.22243594	         -4.98127134	         -2.16741003	         10.50375159	          1.32927818	          0.82161745	         -0.01540320	         28.75748028	         -0.99979439	         -6.29698812	         -9.77855971	          5.58773612	          0.22142450	        -12.55098464	         -2.37468692	          4.56512005	        -14.47817341	          7.89423767	         30.32531312	         -5.83744492	          2.28054717	         -4.40252316	          0.07687899	          0.09246321	          0.01197804	          0.10379346	          0.18970308	          0.04060415	          0.07349170	          0.10949850	          0.04301094	          0.00999999	          0.01330645	          0.01197804	          0.01096944	          0.32919157	          0.13100976	          0.00999999	          0.00999999	          0.02261790	          0.10935385	          0.02099700	          0.07234781	          0.02058469	          0.33120554	          0.00999999	          0.00999999	          0.15599607	          0.17864514	          0.00999999	
